# xmcd CD database file
#
# Track frame offsets:
#	150
#	11264
#	26582
#	43089
#	59701
#	71994
#	90022
#	104971
#	114992
#	131202
#	148334
#	159759
#	176573
#	195207
#	213626
#	234366
#	253973
#	270407
#	286847
#	314147
#
# Disc length: 4411 seconds
#
# Revision: 0
# Processed by: cddbd v1.5.1PL0 Copyright (c) Steve Scherf et al.
# Submitted via: CDex 1.51
#
DISCID=2a113914
DTITLE=Various Artist - 10
DYEAR=1900
DGENRE=Country
TTITLE0=Chattahoochee
TTITLE1=Achy Breaky Heart
TTITLE2=Bop
TTITLE3=The Dance
TTITLE4=Born To Boogie
TTITLE5=Family Tradition
TTITLE6=Thatnk God I'm A Country Boy
TTITLE7=Rocky Top
TTITLE8=Forever And Ever Amen
TTITLE9=Baby Likes To Rock It
TTITLE10=On The Road Again
TTITLE11=Get Ready For This
TTITLE12=Everybody Everybody
TTITLE13=Gonna Make You Sweat
TTITLE14=100% Pure Love
TTITLE15=Mr. Vain
TTITLE16=She Drives Me Crazy
TTITLE17=Jump Around
TTITLE18=Control
TTITLE19=Escapade
EXTD=
EXTT0=
EXTT1=
EXTT2=
EXTT3=
EXTT4=
EXTT5=
EXTT6=
EXTT7=
EXTT8=
EXTT9=
EXTT10=
EXTT11=
EXTT12=
EXTT13=
EXTT14=
EXTT15=
EXTT16=
EXTT17=
EXTT18=
EXTT19=
PLAYORDER=
